# xmcd
#
# Track frame offsets: 
#        150
#        15361
#        27328
#        52280
#        72303
#        88548
#        115001
#        146250
#        159038
#        187783
#        210283
#        239369
#        264458
#        290124
#        307246
#
# Disc length: 4347 seconds
#
# Revision: 0
# Processed by: cddbd v1.4PL0 Copyright (c) Steve Scherf et al.
# Submitted via: ExactAudioCopy v0.90b2
#
DISCID=c910f90f
DTITLE=Various Artist - RcaVictor Goes Funk
DYEAR=2002
DGENRE=Funk
TTITLE0=Gil Scott-Heron - Introduction... The revolution will not be t
TTITLE0=elevised
TTITLE1=Lonnie Liston Smith - Peace and Love
TTITLE2=The Headhunters - Straight from the Gate
TTITLE3=Leon Thomas - Let's go down to lucy
TTITLE4=Gil Scott-Heron - Lady day and John coltrane
TTITLE5=Lonnie Liston Smith - Summer Days
TTITLE6=Lonnie Liston Smith - Beautiful Woman
TTITLE7=Gil Scott-Heron - The King Alfred Plan
TTITLE8=Oliver Wilson - 125th st. and 7th Avenue
TTITLE9=Leon Thomas - Sweet Little Angle
TTITLE10=The HeadHunters - If you've got it you'll get it
TTITLE11=Lonnie Liston Smith - Rejuvenation
TTITLE12=Leon Thomas - Echoes
TTITLE13=Joe Turner, T-Bone Walker and Otis Spann - Here I am broken Hea
TTITLE13=rted
TTITLE14=Eddie Cleanhead Vinson - Cleanhead Blues
EXTD=
EXTT0=
EXTT1=
EXTT2=
EXTT3=
EXTT4=
EXTT5=
EXTT6=
EXTT7=
EXTT8=
EXTT9=
EXTT10=
EXTT11=
EXTT12=
EXTT13=
EXTT14=
PLAYORDER=
